<?xml version="1.0" encoding="utf-8"?>
<svg width="512" height="512" viewBox="0 0 512 512" xmlns="http://www.w3.org/2000/svg"
     xmlns:xlink="http://www.w3.org/1999/xlink">
	<defs>
		<svg xmlns="http://www.w3.org/2000/svg" width="170px" viewBox="-15 10 200 170" version="1.1" height="170px" id="AppleLogo">
			<path d="m150.37 130.25c-2.45 5.66-5.35 10.87-8.71 15.66-4.58 6.53-8.33 11.05-11.22 13.56-4.48 4.12-9.28 6.23-14.42 6.35-3.69 0-8.14-1.05-13.32-3.18-5.197-2.12-9.973-3.17-14.34-3.17-4.58 0-9.492 1.05-14.746 3.17-5.262 2.13-9.501 3.24-12.742 3.35-4.929 0.21-9.842-1.96-14.746-6.52-3.13-2.73-7.045-7.41-11.735-14.04-5.032-7.08-9.169-15.29-12.41-24.65-3.471-10.11-5.211-19.9-5.211-29.378 0-10.857 2.346-20.221 7.045-28.068 3.693-6.303 8.606-11.275 14.755-14.925s12.793-5.51 19.948-5.629c3.915 0 9.049 1.211 15.429 3.591 6.362 2.388 10.447 3.599 12.238 3.599 1.339 0 5.877-1.416 13.57-4.239 7.275-2.618 13.415-3.702 18.445-3.275 13.63 1.1 23.87 6.473 30.68 16.153-12.19 7.386-18.22 17.731-18.1 31.002 0.11 10.337 3.86 18.939 11.23 25.769 3.34 3.17 7.07 5.62 11.22 7.36-0.9 2.61-1.85 5.11-2.86 7.51zm-31.26-123.01c0 8.1021-2.96 15.667-8.86 22.669-7.12 8.324-15.732 13.134-25.071 12.375-0.119-0.972-0.188-1.995-0.188-3.07 0-7.778 3.386-16.102 9.399-22.908 3.002-3.446 6.82-6.3113 11.45-8.597 4.62-2.2516 8.99-3.4968 13.1-3.71 0.12 1.0831 0.17 2.1663 0.17 3.2409z"/>
		</svg>

		<svg xmlns="http://www.w3.org/2000/svg" xmlns:xlink="http://www.w3.org/1999/xlink" viewBox="-147 -70 294 345" id="AndroidLogo">
			<g fill="#a4c639">
				<use stroke-width="14.4" xlink:href="#b" stroke="#FFF"/>
				<use xlink:href="#a" transform="scale(-1,1)"/>
				<g id="a" stroke="#FFF" stroke-width="7.2">
					<rect rx="6.5" transform="rotate(29)" height="86" width="13" y="-86" x="14"/>
					<rect id="c" rx="24" height="133" width="48" y="41" x="-143"/>
					<use y="97" x="85" xlink:href="#c"/>
				</g>
				<g id="b">
					<ellipse cy="41" rx="91" ry="84"/>
					<rect rx="22" height="182" width="182" y="20" x="-91"/>
				</g>
			</g>
			<g stroke="#FFF" stroke-width="7.2" fill="#FFF">
				<path d="m-95 44.5h190"/>
				<circle cx="-42" r="4"/>
				<circle cx="42" r="4"/>
			</g>
		</svg>
		
		<svg xmlns="http://www.w3.org/2000/svg" viewBox="-37 -10 200 150" enable-background="new 0 0 609 130" id="MicrosoftLogo">
			<g>
				<path fill="#F25022" d="M0 0h61.3v61.3h-61.3z"/>
				<path fill="#7FBA00" d="M67.7 0h61.3v61.3h-61.3z"/>
				<path fill="#00A4EF" d="M0 67.7h61.3v61.3h-61.3z"/>
				<path fill="#FFB900" d="M67.7 67.7h61.3v61.3h-61.3z"/>
			</g>
		</svg>

		<svg xmlns="http://www.w3.org/2000/svg" xmlns:xlink="http://www.w3.org/1999/xlink" version="1.1" id="AngularLogo" x="0px" y="0px" width="165.908px" height="175.75px" viewBox="0 -30 165.908 215" enable-background="new 0 0 165.908 175.75" xml:space="preserve">
			<g>
				<polygon fill="#B4B4B4" points="82.689,0 0,29.1 13.067,137.436 82.777,175.75 152.846,136.917 165.908,28.585  "/>
				<polygon fill="#A51E22" points="157.66,34.846 82.496,9.214 82.496,166.596 145.487,131.734  "/>
				<polygon fill="#DC2226" points="9.279,35.308 20.476,132.197 82.495,166.596 82.495,9.211  "/>
				<path fill="#F3F3F3" d="M103.186,92.996l-20.69,9.675H60.689l-10.251,25.64l-19.067,0.354L82.496,14.929L103.186,92.996z    M101.186,88.125L82.633,51.396L67.415,87.493h15.08L101.186,88.125z"/>
				<polygon fill="#B4B4B4" points="82.495,14.929 82.632,51.396 99.9,87.521 82.534,87.521 82.495,102.648 106.508,102.671    117.731,128.668 135.975,129.006  "/>
			</g>
		</svg>
		
		<svg id="svg-15" viewBox="0 0 128 128" height="100%" width="100%" pointer-events="none" display="block"  y="256">
			<path fill="#FF80AB" d="M0 0h128v128H0z"/>
			<path fill="#5D4037"
                  d="M87.3 11.7c-7.6 0-14.1 4.9-16.4 11.7-2.8-1.6-5.9-2.7-9.1-3.1-13.9-2.1-26.9 7.1-31.1 21.1 5 .8 9.5 3.1 13.4 3.1 1.4-.6 3-.9 4.6-.9 1.1 0 2.2.2 3.3.5 10-1.3 15.2-5.2 17.9-9 .3.5.6 1 1 1.6v.1c2.1 3.1 6.6 7.7 14.7 9.2.9-.3 1.9-.4 3-.2 1.5.2 2.8-1.1 3.8-.1 7-2.2 12.2-8.8 12.2-16.5 0-9.7-7.8-17.5-17.3-17.5z"/>
			<path d="M70.9 36.6c-.4-.6-.8-1.2-1-1.6.2.5.5 1 1 1.6z" fill="none"/>
			<path fill="#5D4037" d="M85.6 45.9z"/>
			<path fill="#FFCC80"
                  d="M48.6 63.8c5.6 0 10.1-4.5 10.1-10.1s-4.5-10.1-10.1-10.1-10.1 4.5-10.1 10.1c.1 5.5 4.6 10.1 10.1 10.1zm-1.7-10.5c0 .9-.7 1.6-1.6 1.6-.9 0-1.6-.7-1.6-1.6 0-.9.7-1.6 1.6-1.6.9-.1 1.6.7 1.6 1.6zm38.7-7.4z"/>
			<path fill="#F9A825"
                  d="M35.6 117.3c0 2.5 2.1 4.6 4.6 4.6s4.6-2.1 4.6-4.6c0-1.7-.9-3.2-2.3-4-.8-.2-1.8-.3-2.7-.6-2.3.3-4.2 2.2-4.2 4.6z"/>
			<circle fill="#F9A825" cx="64.3" cy="117.1" r="4.6"/>
			<path fill="#F9A825"
                  d="M83.4 117.3c0 2.5 2.1 4.6 4.6 4.6 1.5 0 2.8-.7 3.7-1.8l-.7-.9-.6-.8c-.6-.7-1.3-1.5-1.8-2.1l-.3-.4c-.4-.5-.8-.9-1.2-1.5-.3-.4-.6-.8-.9-1.3-1.7.8-2.8 2.4-2.8 4.2z"/>
			<path fill="#FFEE58"
                  d="M91.6 119.8c-.8 1-2.1 1.7-3.5 1.7-2.4 0-4.4-2-4.4-4.4 0-1.8 1-3.3 2.5-4-3-3.9-5.3-7.5-7.2-11 .2.1-7.3 10.6-23.7 12-3.8.3-8 .1-12.8-.8 1.3.8 2.2 2.2 2.2 3.8 0 2.4-2 4.4-4.4 4.4s-4.4-2-4.4-4.4c0-2.3 1.8-4.2 4-4.4-2.4-.6-4.8-1.3-7.4-2.2-1.2 5.7-2.6 11.6-4.1 17.5h69c-1.4-2-2.6-3.8-3.7-5.3m-29.4-1.2c-2.4 0-4.4-2-4.4-4.4s2-4.4 4.4-4.4 4.4 2 4.4 4.4c0 2.4-2 4.4-4.4 4.4z"/>
			<path fill="#FFCC80"
                  d="M92.4 45.6c-1-1-2.4-1.7-3.8-1.9-1-.2-2-.1-3 .2-8.1-1.5-12.6-6.1-14.7-9.2-.5-.7-.8-1.2-1.1-1.7-2.7 3.8-7.9 7.7-17.9 9l.9.3-9.4.4.6-.3c-3.9 0-8.3-.4-13.4-1.1-.5 1.7-.9 3.5-1.2 5.3-.2 1.8-.5 3.8-.6 6l-.3 2-2.3 9.4h9c1.2 3 2.1 7.7 1.9 15.3-.2 6.9-3.9 27.7-4.2 29-.1.7-.3 1.4-.5 2.1 2.6.9 5 2 7.3 2.5l2.7.5c4.8.9 9.2 1.4 13 1.1 16.4-1.3 24-12 24-12-9.8-18.4-4.6-30.7 2.1-37.5 1.6-1.7 3.3-3 4.9-4.1.9-.6 1.7-1.2 2.5-1.6 1.8-1.1 3.2-1.6 3.4-1.7 1.3-1.2 2.3-3 2.6-5 .3-2.6-.7-5.3-2.5-7zm-32.9 2.7c.5 1 .8 2 1 3.1l-1-3.1z"/>
			<path fill="#DB4437"
                  d="M36.6 54.7c.5 6.2 5.7 11.1 12 11.1 6.7 0 12.1-5.4 12.1-12.1 0-5.5-3.7-10.2-8.8-11.6-1-.3-2.1-.5-3.3-.5-1.6 0-3.2.3-4.6.9-4.1 1.7-7.1 5.6-7.4 10.2h-7.7l-.1.9-.3 1.1h8.1zm12-11.1c5.6 0 10.1 4.5 10.1 10.1s-4.5 10.1-10.1 10.1-10.1-4.5-10.1-10.1c.1-5.6 4.6-10.1 10.1-10.1z"/>
			<circle fill="#444" cx="45.3" cy="53.3" r="2"/>
		</svg>
	</defs>
</svg>
